<?xml version="1.0" standalone="no"?>
<!DOCTYPE svg PUBLIC "-//W3C//DTD SVG 20010904//EN"
 "http://www.w3.org/TR/2001/REC-SVG-20010904/DTD/svg10.dtd">
<svg version="1.0" xmlns="http://www.w3.org/2000/svg"
 width="1024.000000pt" height="1024.000000pt" viewBox="0 0 1024.000000 1024.000000"
 preserveAspectRatio="xMidYMid meet">
<metadata>
Created by potrace 1.16, written by Peter Selinger 2001-2019
</metadata>
<g transform="translate(0.000000,1024.000000) scale(0.100000,-0.100000)"
fill="#000000" stroke="none">
<path d="M0 5120 l0 -5120 5120 0 5120 0 0 5120 0 5120 -5120 0 -5120 0 0
-5120z m3075 2846 c19 -8 49 -31 66 -50 30 -35 31 -35 60 -20 37 19 46 13 70
-42 l18 -44 33 14 c18 8 72 32 119 55 102 48 154 53 193 19 23 -20 110 -204
261 -548 18 -41 47 -105 64 -143 20 -44 31 -83 31 -112 0 -69 -37 -102 -200
-173 -74 -33 -229 -104 -345 -157 -474 -219 -466 -216 -520 -181 -15 10 -36
39 -47 64 -11 26 -68 153 -126 282 -225 502 -217 481 -187 541 12 22 39 40
113 74 53 25 107 48 119 51 27 7 28 17 8 75 -15 40 -14 45 2 56 9 7 22 13 28
13 7 0 11 22 11 63 -1 78 26 126 87 156 49 25 94 27 142 7z m4095 -107 c129
-21 237 -77 330 -171 95 -96 143 -198 163 -345 36 -273 -162 -558 -438 -628
-131 -33 -318 -9 -433 56 -30 18 -86 61 -124 97 -298 281 -189 812 198 958
110 41 197 51 304 33z m-2684 -984 c49 -9 129 -30 179 -46 92 -31 305 -127
305 -138 0 -6 -221 -134 -252 -146 -36 -14 -16 -25 45 -25 92 0 233 26 333 61
49 17 172 70 274 119 102 48 210 97 240 108 198 75 423 100 611 67 201 -35
406 -141 543 -282 231 -238 359 -551 399 -975 l5 -48 -477 0 c-291 0 -493 -5
-521 -11 -57 -13 -105 -49 -130 -99 -19 -38 -20 -60 -20 -629 l0 -589 -36 -44
c-20 -23 -80 -90 -134 -148 -135 -146 -187 -206 -201 -231 -28 -53 -3 -166 47
-210 54 -47 58 -48 485 -50 222 -1 416 -5 430 -8 l27 -6 -32 -105 c-104 -341
-322 -708 -559 -941 -130 -129 -193 -165 -278 -157 -114 11 -148 74 -189 358
-79 545 -182 825 -331 901 -77 39 -179 13 -239 -59 -112 -136 -208 -457 -260
-869 -28 -221 -47 -271 -119 -311 -52 -30 -114 -29 -177 3 -62 31 -250 217
-338 336 -210 282 -355 597 -479 1036 l-15 52 117 63 c171 93 219 142 242 247
14 66 4 98 -74 240 -227 409 -518 943 -593 1087 -48 93 -96 182 -107 197 -16
24 -18 38 -12 90 56 502 314 922 663 1078 74 34 210 75 287 88 83 14 247 12
341 -4z m3418 -475 c36 -14 69 -36 99 -69 171 -183 26 -471 -226 -448 -114 10
-201 82 -233 194 -38 132 35 270 170 322 66 26 122 26 190 1z m-5379 -154 c43
-18 75 -69 75 -118 0 -73 -83 -132 -155 -108 -114 38 -114 194 0 232 32 10 43
9 80 -6z m5168 -428 c29 -12 54 -23 55 -24 5 -3 -87 -206 -98 -218 -8 -8 -170
-10 -177 -2 -2 1 28 58 67 127 38 68 70 127 70 131 0 14 30 9 83 -14z m-5123
-176 c19 -11 49 -40 66 -65 28 -43 32 -46 50 -32 32 24 69 18 98 -16 14 -17
26 -37 26 -44 0 -22 -53 -56 -240 -153 -96 -50 -194 -101 -217 -114 -41 -22
-42 -22 -62 -4 -14 13 -21 31 -21 55 1 43 14 62 57 84 l32 17 -20 56 c-23 65
-19 112 12 163 38 63 149 90 219 53z m446 -39 c14 -21 117 -207 228 -413 111
-206 271 -500 354 -652 84 -153 155 -286 159 -295 4 -10 16 -31 28 -48 50 -68
37 -126 -38 -168 -23 -13 -235 -129 -472 -258 -404 -220 -433 -234 -482 -234
-37 0 -60 6 -80 21 -17 13 -69 97 -136 220 -60 109 -126 231 -147 269 -73 135
-383 711 -441 821 -94 177 -82 231 71 316 l85 47 10 -32 c23 -72 71 -117 128
-117 48 0 608 293 644 338 30 36 30 95 1 139 -13 18 -26 33 -30 33 -20 0 -4
23 25 35 50 22 65 18 93 -22z m5191 -225 c18 -13 37 -36 43 -52 6 -18 10 -206
10 -498 0 -500 -1 -512 -49 -538 -21 -11 -1975 -15 -1993 -4 -35 22 -38 64
-38 560 l0 486 34 34 34 34 963 0 963 0 33 -22z m229 -1409 c87 -84 163 -162
168 -175 6 -15 6 -32 -2 -49 l-12 -25 -1374 0 -1375 0 -15 22 c-9 12 -16 31
-16 42 0 11 63 82 158 178 l157 158 1076 0 1075 0 160 -151z"/>
<path d="M6970 7490 l0 -100 -105 0 -105 0 0 -105 0 -105 105 0 105 0 0 -100
0 -100 110 0 110 0 0 100 0 100 105 0 105 0 0 105 0 105 -105 0 -105 0 0 100
0 100 -110 0 -110 0 0 -100z"/>
<path d="M4397 5945 c-131 -46 -167 -215 -67 -315 98 -98 260 -54 306 82 22
68 6 136 -47 189 -55 55 -120 70 -192 44z"/>
<path d="M5818 5950 c-46 -14 -85 -48 -107 -93 -64 -131 19 -277 158 -279 80
0 145 42 176 115 61 146 -77 302 -227 257z"/>
<path d="M4685 5361 c-58 -10 -85 -28 -101 -66 -45 -108 25 -295 159 -427 84
-83 188 -135 326 -163 178 -37 389 32 522 172 164 172 219 400 113 470 -26 17
-61 18 -504 20 -261 0 -493 -2 -515 -6z"/>
<path d="M7193 4023 l-981 -3 -28 -33 -27 -32 527 -3 c289 -1 763 -1 1053 0
l526 3 -35 38 c-19 20 -39 36 -44 35 -5 -2 -451 -4 -991 -5z"/>
<path d="M6846 3878 c-9 -12 -16 -28 -16 -34 0 -34 28 -37 356 -41 285 -4 328
-2 350 12 29 18 31 46 6 68 -17 15 -56 17 -350 17 -331 0 -331 0 -346 -22z"/>
</g>
</svg>
